<?xml version="1.0" standalone="no"?><!DOCTYPE svg PUBLIC "-//W3C//DTD SVG 1.1//EN" "http://www.w3.org/Graphics/SVG/1.1/DTD/svg11.dtd"><svg t="1562902060850" class="icon" viewBox="0 0 1024 1024" version="1.1" xmlns="http://www.w3.org/2000/svg" p-id="2217" xmlns:xlink="http://www.w3.org/1999/xlink" width="200" height="200"><defs><style type="text/css"></style></defs><path d="M384.009715 63.997523A63.924823 63.924823 0 0 1 447.878221-0.004096H575.456523a64.201288 64.201288 0 0 1 64.559668 63.853147v896.109703A63.955542 63.955542 0 0 1 576.132326 1023.996211h-127.481027a64.201288 64.201288 0 0 1-64.600627-63.78659v-0.235508z m383.91244 511.787686a63.894105 63.894105 0 0 1 64.600626-63.80707h126.805224A64.477753 64.477753 0 0 1 1023.94399 575.785209v384.373214A63.914584 63.914584 0 0 1 959.328005 1023.996211h-126.805224a64.477753 64.477753 0 0 1-64.600626-63.822429v-384.388573zM0.092155 320.167831A64.022098 64.022098 0 0 1 64.022098 256.038219H191.477526a64.672302 64.672302 0 0 1 64.610866 64.109133v639.709008A64.047697 64.047697 0 0 1 192.14309 1023.996211H64.585267A64.682542 64.682542 0 0 1 0 959.85636V320.167831h0.102394z" fill="#2c2c2c" p-id="2218"></path></svg>